<svg id="Layer_1" data-name="Layer 1" xmlns="http://www.w3.org/2000/svg" viewBox="0 0 84 144.5"><defs><style>.cls-1{fill:#ffcba1;}.cls-2{fill:#4e6175;}.cls-3,.cls-4{fill:#ffc19f;}.cls-3{stroke:#ffc19f;stroke-miterlimit:10;}.cls-5{fill:#ffa08a;}</style></defs><title>body_0</title><rect class="cls-1" x="25.31" y="124.5" width="8" height="15" rx="4" ry="4"/><rect class="cls-2" x="5" y="42" width="74" height="41" rx="20.5" ry="20.5"/><rect class="cls-2" x="22.81" y="68" width="13" height="64" rx="6.5" ry="6.5"/><rect class="cls-1" x="53.31" y="124.5" width="8" height="15" rx="4" ry="4"/><rect class="cls-2" x="17.81" y="96" width="10" height="10" rx="5" ry="5"/><rect class="cls-2" x="50.81" y="68" width="13" height="64" rx="6.5" ry="6.5"/><rect class="cls-2" x="689" y="408" width="10" height="10" rx="5" ry="5" transform="translate(746.81 514) rotate(180)"/><rect class="cls-1" x="659" y="437" width="9.5" height="29.5" rx="4.75" ry="4.75" transform="translate(474.31 -524) rotate(90)"/><rect class="cls-1" x="692" y="437" width="9.5" height="29.5" rx="4.75" ry="4.75" transform="translate(507.31 -557) rotate(90)"/><rect class="cls-3" x="6.5" y="0.5" width="71" height="40" rx="20" ry="20"/><rect class="cls-1" y="15.5" width="84" height="55.5" rx="27.75" ry="27.75"/><rect class="cls-1" x="32" y="6" width="20" height="39" rx="10" ry="10"/><rect class="cls-4" x="2.31" y="13.5" width="34.8" height="24" rx="12" ry="12"/><rect class="cls-4" x="46.31" y="13.5" width="34.8" height="24" rx="12" ry="12"/><ellipse class="cls-5" cx="10.31" cy="30" rx="4.5" ry="3"/><ellipse class="cls-5" cx="73.31" cy="30" rx="4.5" ry="3"/><rect class="cls-4" x="33.31" y="53.7" width="18.5" height="11.8" rx="5.9" ry="5.9"/></svg>