<svg id="Layer_1" data-name="Layer 1" xmlns="http://www.w3.org/2000/svg" viewBox="0 0 73 92"><defs><style>.cls-1{fill:#ffc19f;stroke:#ffc19f;}.cls-1,.cls-2{stroke-miterlimit:10;}.cls-2{fill:#ffcba1;stroke:#ffcba1;}</style></defs><title>hand_0_0</title><rect class="cls-1" x="40.98" y="7.5" width="11.56" height="51" rx="5.56" ry="5.56"/><rect class="cls-1" x="0.5" y="8.5" width="11.56" height="51" rx="5.56" ry="5.56"/><rect class="cls-2" x="2.43" y="12.5" width="7.71" height="12" rx="3.71" ry="3.71"/><rect class="cls-1" x="0.5" y="42.5" width="52.5" height="46" rx="13" ry="13"/><rect class="cls-2" x="2.43" y="29.5" width="7.71" height="15" rx="3.71" ry="3.71"/><ellipse class="cls-2" cx="36.47" cy="72.5" rx="18.47" ry="19"/><path class="cls-2" d="M651.07,424.38l17.51-17.07s4.78-4,8.76,2S666.19,427.39,663,435.43s-13.53,19.08-17.51,17.07Z" transform="translate(-605.5 -362)"/><rect class="cls-1" x="13.99" y="0.5" width="11.56" height="51" rx="5.56" ry="5.56"/><rect class="cls-2" x="15.92" y="4.5" width="7.71" height="12" rx="3.71" ry="3.71"/><rect class="cls-2" x="15.92" y="21.5" width="7.71" height="15" rx="3.71" ry="3.71"/><rect class="cls-1" x="27.48" y="0.5" width="11.56" height="51" rx="5.56" ry="5.56"/><rect class="cls-2" x="29.41" y="4.5" width="7.71" height="12" rx="3.71" ry="3.71"/><rect class="cls-2" x="29.41" y="21.5" width="7.71" height="15" rx="3.71" ry="3.71"/><rect class="cls-2" x="42.9" y="11.5" width="7.71" height="12" rx="3.71" ry="3.71"/><rect class="cls-2" x="42.9" y="28.5" width="7.71" height="15" rx="3.71" ry="3.71"/></svg>