# This file uses centimeters as units for non-parametric coordinates.

mtllib CGD_GeoCrush_GemModel2.mtl
g default
v -0.511251 -0.090542 0.574298
v 0.511251 -0.089766 0.574298
v -0.511251 0.095248 0.574298
v 0.511251 0.096345 0.574298
v -0.511251 0.096253 -0.574298
v 0.511251 0.096347 -0.574298
v -0.511251 -0.099950 -0.574298
v 0.511251 -0.100128 -0.574298
v 0.317535 0.200891 -0.552537
v 0.314030 0.200891 0.552537
v 0.316257 0.068151 0.753459
v 0.318336 -0.055704 0.753459
v 0.320771 -0.200891 0.552537
v 0.320135 -0.200891 -0.552537
v 0.319328 -0.076068 -0.753459
v 0.318391 0.068538 -0.753459
v -0.364397 0.200891 0.552537
v -0.365690 0.066687 0.753459
v -0.366879 -0.056745 0.753459
v -0.368268 -0.200891 0.552537
v -0.362490 -0.200891 -0.552537
v -0.364926 -0.075831 -0.753459
v -0.367737 0.068412 -0.753459
v -0.370317 0.200891 -0.552537
vt 0.375000 0.033663
vt 0.625000 0.034117
vt 0.375000 0.187510
vt 0.625000 0.188193
vt 0.375000 0.561864
vt 0.625000 0.561806
vt 0.375000 0.720666
vt 0.625000 0.720742
vt 0.375000 1.000000
vt 0.625000 1.000000
vt 0.875000 0.029258
vt 0.875000 0.188194
vt 0.125000 0.029334
vt 0.125000 0.188136
vt 0.577637 0.500000
vt 0.576780 0.250000
vt 0.577324 0.126125
vt 0.577833 0.068063
vt 0.578428 0.000000
vt 0.578428 1.000000
vt 0.578273 0.750000
vt 0.578075 0.691456
vt 0.577846 0.623634
vt 0.410906 0.250000
vt 0.410589 0.125214
vt 0.410299 0.067454
vt 0.409959 0.000000
vt 0.409959 1.000000
vt 0.411372 0.750000
vt 0.410776 0.691354
vt 0.410089 0.623712
vt 0.409458 0.500000
vn 0.145342 0.558641 0.816576
vn 0.146333 -0.541677 0.827751
vn 0.602283 -0.349160 0.717874
vn 0.608899 0.345687 0.713963
vn 0.122961 0.992411 0.000191
vn 0.122074 0.992521 0.000190
vn 0.471626 0.881799 0.000734
vn 0.471626 0.881799 0.000734
vn 0.149983 -0.540942 -0.827579
vn 0.149499 0.531040 -0.834054
vn 0.619926 0.321429 -0.715804
vn 0.627973 -0.306499 -0.715338
vn 0.124432 -0.992228 0.000995
vn 0.124440 -0.992227 0.000995
vn 0.485449 -0.874256 0.003883
vn 0.485449 -0.874256 0.003883
vn 1.000000 0.000000 0.000000
vn 1.000000 0.000000 0.000000
vn 1.000000 0.000000 0.000000
vn 1.000000 0.000000 0.000000
vn -1.000000 0.000000 0.000000
vn -1.000000 0.000000 0.000000
vn -1.000000 0.000000 0.000000
vn -1.000000 0.000000 0.000000
vn 0.022783 0.834811 -0.550064
vn 0.022201 0.832956 0.552894
vn 0.023187 -0.848945 -0.527973
vn 0.023075 -0.811128 0.584414
vn -0.132115 0.991234 0.000428
vn -0.130513 0.991447 0.000423
vn -0.020791 0.832784 0.553208
vn -0.155201 0.563832 0.811176
vn -0.153131 -0.551535 0.819976
vn -0.018561 -0.811361 0.584250
vn -0.131829 -0.991272 0.000422
vn -0.130504 -0.991448 0.000418
vn -0.020401 -0.849126 -0.527797
vn -0.157671 -0.547938 -0.821525
vn -0.158327 0.538445 -0.827653
vn -0.019851 0.834691 -0.550361
vn -0.702729 0.342513 0.623583
vn -0.696172 -0.347177 0.628341
vn -0.586557 -0.809905 0.001877
vn -0.586557 -0.809905 0.001877
vn -0.716231 -0.315272 -0.622589
vn -0.716007 0.308612 -0.626173
vn -0.589969 0.807424 0.001910
vn -0.589969 0.807424 0.001910
s 1
g pCube1
usemtl initialShadingGroup
f 11/17/1 12/18/2 2/2/3 4/4/4
s 2
f 9/15/5 10/16/6 4/4/7 6/6/8
s 3
f 15/22/9 16/23/10 6/6/11 8/8/12
s 4
f 13/20/13 14/21/14 8/8/15 2/10/16
s off
f 2/2/17 8/11/18 6/12/19 4/4/20
f 7/13/21 1/1/22 3/3/23 5/14/24
s 3
f 16/23/10 9/15/25 6/6/11
s 1
f 10/16/26 11/17/1 4/4/4
s 3
f 14/21/27 15/22/9 8/8/12
s 1
f 12/18/2 13/19/28 2/2/3
s 2
f 24/32/29 17/24/30 10/16/6 9/15/5
s 1
f 17/24/31 18/25/32 11/17/1 10/16/26
f 18/25/32 19/26/33 12/18/2 11/17/1
f 19/26/33 20/27/34 13/19/28 12/18/2
s 4
f 20/28/35 21/29/36 14/21/14 13/20/13
s 3
f 21/29/37 22/30/38 15/22/9 14/21/27
f 22/30/38 23/31/39 16/23/10 15/22/9
f 23/31/39 24/32/40 9/15/25 16/23/10
s 1
f 3/3/41 18/25/32 17/24/31
f 1/1/42 19/26/33 18/25/32 3/3/41
f 1/1/42 20/27/34 19/26/33
s 4
f 7/7/43 21/29/36 20/28/35 1/9/44
s 3
f 7/7/45 22/30/38 21/29/37
f 5/5/46 23/31/39 22/30/38 7/7/45
f 5/5/46 24/32/40 23/31/39
s 2
f 3/3/47 17/24/30 24/32/29 5/5/48
