# This file uses centimeters as units for non-parametric coordinates.

mtllib CGD_GeoCrush_GemModel3.mtl
g default
v 0.619582 -0.057184 -0.500000
v 0.357716 -0.057184 -0.866025
v 0.000000 -0.057184 -1.000000
v -0.357716 -0.057184 -0.866025
v -0.619582 -0.057184 -0.500000
v -0.715432 -0.057184 0.000000
v -0.619582 -0.057184 0.500000
v -0.357716 -0.057184 0.866025
v 0.000000 -0.057184 1.000000
v 0.357716 -0.057184 0.866025
v 0.619582 -0.057184 0.500000
v 0.715432 -0.057184 0.000000
v 0.619582 0.057184 -0.500000
v 0.357716 0.057184 -0.866025
v 0.000000 0.057184 -1.000000
v -0.357716 0.057184 -0.866025
v -0.619582 0.057184 -0.500000
v -0.715432 0.057184 0.000000
v -0.619582 0.057184 0.500000
v -0.357716 0.057184 0.866025
v 0.000000 0.057184 1.000000
v 0.357716 0.057184 0.866025
v 0.619582 0.057184 0.500000
v 0.715432 0.057184 0.000000
v -0.428490 0.223391 0.000000
v -0.368967 0.223391 0.297755
v -0.213127 0.223391 0.515978
v 0.000000 0.223391 0.590439
v 0.212402 0.223391 0.514223
v 0.366315 0.223391 0.295614
v 0.428490 0.223391 0.000000
v 0.376066 0.223391 -0.303483
v 0.215094 0.223391 -0.520739
v 0.000000 0.223391 -0.597187
v -0.210746 0.223391 -0.510214
v -0.372625 0.223391 -0.300707
v 0.422419 -0.223390 0.000000
v 0.368948 -0.223390 0.297740
v 0.211856 -0.223390 0.512900
v 0.000000 -0.223390 0.605163
v -0.217641 -0.223390 0.526906
v -0.372645 -0.223390 0.300723
v -0.437419 -0.223390 0.000000
v -0.373246 -0.223390 -0.301208
v -0.219773 -0.223390 -0.532068
v 0.000000 -0.223390 -0.593895
v 0.212737 -0.223390 -0.515033
v 0.369065 -0.223390 -0.297834
vt 0.635316 0.078125
vt 0.578125 0.020934
vt 0.500000 0.000000
vt 0.421875 0.020934
vt 0.364684 0.078125
vt 0.343750 0.156250
vt 0.364684 0.234375
vt 0.421875 0.291566
vt 0.500000 0.312500
vt 0.578125 0.291566
vt 0.635316 0.234375
vt 0.656250 0.156250
vt 0.375000 0.312500
vt 0.395833 0.312500
vt 0.416667 0.312500
vt 0.437500 0.312500
vt 0.458333 0.312500
vt 0.479167 0.312500
vt 0.500000 0.312500
vt 0.520833 0.312500
vt 0.541667 0.312500
vt 0.562500 0.312500
vt 0.583333 0.312500
vt 0.604167 0.312500
vt 0.625000 0.312500
vt 0.375000 0.688440
vt 0.395833 0.688440
vt 0.416667 0.688440
vt 0.437500 0.688440
vt 0.458333 0.688440
vt 0.479167 0.688440
vt 0.500000 0.688440
vt 0.520833 0.688440
vt 0.541667 0.688440
vt 0.562500 0.688440
vt 0.583333 0.688440
vt 0.604167 0.688440
vt 0.625000 0.688440
vt 0.635316 0.765625
vt 0.578125 0.708434
vt 0.500000 0.687500
vt 0.421875 0.708434
vt 0.364684 0.765625
vt 0.343750 0.843750
vt 0.364684 0.921875
vt 0.421875 0.979066
vt 0.500000 1.000000
vt 0.578125 0.979066
vt 0.635316 0.921875
vt 0.656250 0.843750
vt 0.406418 0.841243
vt 0.419418 0.794698
vt 0.453453 0.760602
vt 0.500000 0.748934
vt 0.546389 0.760864
vt 0.580003 0.795005
vt 0.593582 0.841243
vt 0.582133 0.888713
vt 0.546976 0.922624
vt 0.500000 0.934543
vt 0.453973 0.920903
vt 0.418619 0.888244
vt 0.592256 0.156250
vt 0.580578 0.202772
vt 0.546269 0.236391
vt 0.500000 0.250807
vt 0.452467 0.238579
vt 0.418615 0.203238
vt 0.404468 0.156250
vt 0.418483 0.109186
vt 0.452002 0.073114
vt 0.500000 0.063454
vt 0.546462 0.075776
vt 0.580604 0.109713
vn 0.813292 0.000000 -0.581855
vn 0.813292 0.000000 -0.581855
vn 0.813292 0.000000 -0.581855
vn 0.813292 0.000000 -0.581855
vn 0.350736 0.000000 -0.936474
vn 0.350736 0.000000 -0.936474
vn 0.350736 0.000000 -0.936474
vn 0.350736 0.000000 -0.936474
vn -0.350736 0.000000 -0.936474
vn -0.350736 0.000000 -0.936474
vn -0.350736 0.000000 -0.936474
vn -0.350736 0.000000 -0.936474
vn -0.813292 0.000000 -0.581855
vn -0.813292 0.000000 -0.581855
vn -0.813292 0.000000 -0.581855
vn -0.813292 0.000000 -0.581855
vn -0.982117 0.000000 -0.188271
vn -0.982117 0.000000 -0.188271
vn -0.982117 0.000000 -0.188271
vn -0.982117 0.000000 -0.188271
vn -0.982117 0.000000 0.188271
vn -0.982117 0.000000 0.188271
vn -0.982117 0.000000 0.188271
vn -0.982117 0.000000 0.188271
vn -0.813292 0.000000 0.581855
vn -0.813292 0.000000 0.581855
vn -0.813292 0.000000 0.581855
vn -0.813292 0.000000 0.581855
vn -0.350736 0.000000 0.936474
vn -0.350736 0.000000 0.936474
vn -0.350736 0.000000 0.936474
vn -0.350736 0.000000 0.936474
vn 0.350736 0.000000 0.936474
vn 0.350736 0.000000 0.936474
vn 0.350736 0.000000 0.936474
vn 0.350736 0.000000 0.936474
vn 0.813292 0.000000 0.581855
vn 0.813292 0.000000 0.581855
vn 0.813292 0.000000 0.581855
vn 0.813292 0.000000 0.581855
vn 0.982117 0.000000 0.188271
vn 0.982117 0.000000 0.188271
vn 0.982117 0.000000 0.188271
vn 0.982117 0.000000 0.188271
vn 0.982117 0.000000 -0.188271
vn 0.982117 0.000000 -0.188271
vn 0.982117 0.000000 -0.188271
vn 0.982117 0.000000 -0.188271
vn -0.080342 0.996199 -0.033652
vn -0.091776 0.995780 0.000239
vn -0.078900 0.996345 0.032735
vn -0.045775 0.997316 0.057137
vn 0.000113 0.997898 0.064800
vn 0.045919 0.997320 0.056966
vn 0.078130 0.996413 0.032509
vn 0.091685 0.995788 0.000635
vn 0.080974 0.996159 -0.033334
vn 0.045477 0.997330 -0.057143
vn -0.000692 0.997828 -0.065871
vn -0.044575 0.997459 -0.055568
vn -0.500951 0.865475 0.001146
vn -0.438585 0.880095 0.181869
vn -0.259170 0.910147 0.323209
vn 0.000582 0.925727 0.378192
vn 0.259074 0.910830 0.321355
vn 0.436459 0.881238 0.181447
vn 0.501321 0.865256 0.003057
vn 0.444390 0.876940 -0.183013
vn 0.262211 0.907223 -0.328926
vn -0.003509 0.924805 -0.380424
vn -0.260153 0.909555 -0.324083
vn -0.437849 0.880210 -0.183082
vn 0.078954 -0.996351 -0.032413
vn 0.089330 -0.996002 0.000007
vn 0.079014 -0.996342 0.032553
vn 0.045039 -0.997467 0.055052
vn 0.000917 -0.997824 0.065928
vn -0.046373 -0.997287 0.057162
vn -0.077617 -0.996463 0.032195
vn -0.093135 -0.995654 0.000040
vn -0.077592 -0.996474 -0.031916
vn -0.046860 -0.997171 -0.058779
vn 0.001069 -0.997972 -0.063646
vn 0.045193 -0.997399 -0.056143
vn 0.436024 -0.881813 0.179693
vn 0.496333 -0.868132 0.000036
vn 0.264415 -0.908453 0.323724
vn 0.004716 -0.922709 0.385467
vn -0.267341 -0.905425 0.329748
vn -0.447199 -0.875008 0.185403
vn -0.507429 -0.861694 0.000191
vn -0.449876 -0.873691 -0.185139
vn -0.263839 -0.906195 -0.330454
vn 0.005700 -0.923258 -0.384139
vn 0.260339 -0.909773 -0.323322
vn 0.437035 -0.881341 -0.179553
s off
g pCylinder1
usemtl initialShadingGroup
f 1/13/1 2/14/2 14/27/3 13/26/4
f 2/14/5 3/15/6 15/28/7 14/27/8
f 3/15/9 4/16/10 16/29/11 15/28/12
f 4/16/13 5/17/14 17/30/15 16/29/16
f 5/17/17 6/18/18 18/31/19 17/30/20
f 6/18/21 7/19/22 19/32/23 18/31/24
f 7/19/25 8/20/26 20/33/27 19/32/28
f 8/20/29 9/21/30 21/34/31 20/33/32
f 9/21/33 10/22/34 22/35/35 21/34/36
f 10/22/37 11/23/38 23/36/39 22/35/40
f 11/23/41 12/24/42 24/37/43 23/36/44
f 12/24/45 1/25/46 13/38/47 24/37/48
s 1
f 36/62/49 25/51/50 26/52/51 27/53/52 28/54/53 29/55/54 30/56/55 31/57/56 32/58/57 33/59/58 34/60/59 35/61/60
f 18/44/61 19/43/62 26/52/51 25/51/50
f 19/43/62 20/42/63 27/53/52 26/52/51
f 20/42/63 21/41/64 28/54/53 27/53/52
f 21/41/64 22/40/65 29/55/54 28/54/53
f 22/40/65 23/39/66 30/56/55 29/55/54
f 23/39/66 24/50/67 31/57/56 30/56/55
f 24/50/67 13/49/68 32/58/57 31/57/56
f 13/49/68 14/48/69 33/59/58 32/58/57
f 14/48/69 15/47/70 34/60/59 33/59/58
f 15/47/70 16/46/71 35/61/60 34/60/59
f 16/46/71 17/45/72 36/62/49 35/61/60
f 17/45/72 18/44/61 25/51/50 36/62/49
s 2
f 48/74/73 37/63/74 38/64/75 39/65/76 40/66/77 41/67/78 42/68/79 43/69/80 44/70/81 45/71/82 46/72/83 47/73/84
f 11/11/85 38/64/75 37/63/74 12/12/86
f 11/11/85 10/10/87 39/65/76 38/64/75
f 40/66/77 39/65/76 10/10/87 9/9/88
f 8/8/89 41/67/78 40/66/77 9/9/88
f 7/7/90 42/68/79 41/67/78 8/8/89
f 6/6/91 43/69/80 42/68/79 7/7/90
f 5/5/92 44/70/81 43/69/80 6/6/91
f 4/4/93 45/71/82 44/70/81 5/5/92
f 3/3/94 46/72/83 45/71/82 4/4/93
f 2/2/95 47/73/84 46/72/83 3/3/94
f 1/1/96 48/74/73 47/73/84 2/2/95
f 12/12/86 37/63/74 48/74/73 1/1/96
