<svg id="Layer_11" data-name="Layer 11" xmlns="http://www.w3.org/2000/svg" viewBox="0 0 86.99 94.94"><defs><style>.cls-1{fill:#fff;}</style></defs><title>HFH_ClosedHandBack</title><path class="cls-1" d="M470.22,218.78a7.5,7.5,0,0,0-14.66-3L453,225.48c0,.15-.06.3-.09.45-.38-.12-.77-.22-1.16-.32l.14-2.53a7.09,7.09,0,0,0,.51-2l1.83-16.9a7.5,7.5,0,1,0-14.91-1.62l-.3,2.74a7.43,7.43,0,0,0-1.39,3.93l-.85,15.53h-3.51l.35-6.31a7.39,7.39,0,0,0,1.38-3.92l1.1-19.77a7.52,7.52,0,0,0-7.08-7.9h0a7.51,7.51,0,0,0-7.9,7.07l-.07,1.23a7.39,7.39,0,0,0-1.38,3.92l-.61,11a7.54,7.54,0,0,0-.24-1.24L415,195.75a7.5,7.5,0,1,0-14.4,4.2l.35,1.22a7.36,7.36,0,0,0-.08,1.56l1.26,21.39-14.66,4c-2.95.8-4.48,4.72-3.4,8.7a10,10,0,0,0,1.21,2.72l1.22,7.46a6.26,6.26,0,0,0,1.29,5.17l22.44,26.55c3.26,1.12,5.23,2,7.13,1.68A34.15,34.15,0,0,0,428,281.69h16.78c13,1,20.1-5.93,22.88-19.13l1.24-17.64a17.09,17.09,0,0,0-.36-3.44l2.08-19.28A7.39,7.39,0,0,0,470.22,218.78ZM401.37,245l-.87-5.27,3.08-1c-.08,1.22-.13,2.54-.13,4l.2,5Zm17.53-32.43-.67,12.06h-1.06l-.48-8.24A7.6,7.6,0,0,0,418.9,212.58Z" transform="translate(-383.71 -186.84)"/></svg>