<svg id="Layer_10" data-name="Layer 10" xmlns="http://www.w3.org/2000/svg" viewBox="0 0 88.62 96.37"><defs><style>.cls-1{fill:#bc7251;}.cls-2{fill:#e9b292;}.cls-3{fill:#f1ba9a;}.cls-4{fill:#ffc6a9;}</style></defs><title>HFH_ClosedHandFront</title><rect class="cls-1" x="403.17" y="196.23" width="15" height="42.51" rx="7.5" ry="7.5" transform="translate(-395.61 -162.49) rotate(-3.35)"/><rect class="cls-1" x="420.3" y="193.43" width="15" height="45.52" rx="7.5" ry="7.5" transform="translate(-371.01 -210.15) rotate(3.16)"/><rect class="cls-1" x="438.3" y="203.58" width="15" height="44.38" rx="7.5" ry="7.5" transform="translate(-370.46 -211.12) rotate(3.16)"/><rect class="cls-1" x="455.55" y="215.27" width="15" height="45.95" rx="7.5" ry="7.5" transform="translate(-355.31 -235.26) rotate(6.17)"/><path class="cls-1" d="M421.71,280.38h0c-3.15,2.66-5.15,1.47-10-.2l-22.44-26.55c-2.34-2.77-1.68-7.21,1.47-9.87h0c3.15-2.67,7.65-2.58,10,.19l22.44,26.55C425.53,273.27,424.86,277.71,421.71,280.38Z" transform="translate(-383.59 -186.87)"/><path class="cls-1" d="M426.48,226.22h19.86c13.26,0,24.11,9.07,24.11,20.16L469.21,264c-2.78,13.19-9.87,20.11-22.87,19.12H429.55c-20.33.22-19.86-10.08-23.88-21.07l-.7-17.87C405,223.49,413.22,226.22,426.48,226.22Z" transform="translate(-383.59 -186.87)"/><rect class="cls-1" x="403.7" y="191.54" width="15" height="28.6" rx="7.5" ry="7.5" transform="translate(-424.8 -63.41) rotate(-16.27)"/><rect class="cls-1" x="422.05" y="188.29" width="15" height="34.8" rx="7.5" ry="7.5" transform="translate(-371.59 -210.26) rotate(3.16)"/><rect class="cls-1" x="439.85" y="197.28" width="15" height="32" rx="7.5" ry="7.5" transform="translate(-358.08 -233.71) rotate(6.17)"/><rect class="cls-1" x="455.53" y="211.48" width="15" height="25.05" rx="7.5" ry="7.5" transform="translate(-310.75 -298.02) rotate(14.84)"/><path class="cls-1" d="M396.43,253.49h0c-4.07.67-5-.27-7.92-2l-2.74-16.75c-.29-1.75,2.81-3.73,6.88-4.39h0c4.07-.67,7.63.22,7.92,2l2.74,16.76C403.6,250.85,400.5,252.83,396.43,253.49Z" transform="translate(-383.59 -186.87)"/><path class="cls-1" d="M385.58,238.28h0c-1.09-4,.44-7.89,3.39-8.7l17.23-4.7c3-.81,7.91-1.94,8,5.79h0c-.31,4.86-1.51,7.3-4.46,8.1l-16.82,5.28C390,244.86,386.66,242.26,385.58,238.28Z" transform="translate(-383.59 -186.87)"/><rect class="cls-2" x="401.53" y="194.8" width="15" height="42.51" rx="7.5" ry="7.5" transform="translate(-395.53 -162.59) rotate(-3.35)"/><rect class="cls-2" x="418.67" y="192" width="15" height="45.52" rx="7.5" ry="7.5" transform="translate(-371.1 -210.06) rotate(3.16)"/><rect class="cls-2" x="436.67" y="202.15" width="15" height="44.38" rx="7.5" ry="7.5" transform="translate(-370.54 -211.04) rotate(3.16)"/><rect class="cls-2" x="453.92" y="213.83" width="15" height="45.95" rx="7.5" ry="7.5" transform="translate(-355.47 -235.09) rotate(6.17)"/><path class="cls-2" d="M420.08,278.94h0c-3.15,2.67-5.15,1.47-10-.19L387.66,252.2c-2.34-2.77-1.68-7.21,1.47-9.87h0c3.15-2.67,7.64-2.58,10,.19l22.44,26.55C423.89,271.84,423.23,276.28,420.08,278.94Z" transform="translate(-383.59 -186.87)"/><path class="cls-3" d="M424.85,224.78H444.7c13.27,0,24.12,9.08,24.12,20.17l-1.24,17.64c-2.78,13.2-9.87,20.12-22.88,19.13H427.92c-20.33.21-19.86-10.08-23.88-21.08l-.71-17.87C403.33,222.06,411.58,224.78,424.85,224.78Z" transform="translate(-383.59 -186.87)"/><rect class="cls-4" x="402.07" y="190.11" width="15" height="28.6" rx="7.5" ry="7.5" transform="translate(-424.46 -63.92) rotate(-16.27)"/><rect class="cls-4" x="420.42" y="186.86" width="15" height="34.8" rx="7.5" ry="7.5" transform="translate(-371.67 -210.17) rotate(3.16)"/><rect class="cls-4" x="438.22" y="195.85" width="15" height="32" rx="7.5" ry="7.5" transform="translate(-358.25 -233.55) rotate(6.17)"/><rect class="cls-4" x="453.9" y="210.04" width="15" height="25.05" rx="7.5" ry="7.5" transform="translate(-311.17 -297.65) rotate(14.84)"/><path class="cls-2" d="M394.8,252.06h0c-4.07.67-5-.27-7.93-2l-2.74-16.76c-.28-1.74,2.81-3.72,6.89-4.38h0c4.07-.67,7.63.22,7.92,2l2.74,16.75C402,249.42,398.87,251.39,394.8,252.06Z" transform="translate(-383.59 -186.87)"/><path class="cls-4" d="M383.94,236.85h0c-1.08-4,.44-7.9,3.4-8.7l17.23-4.7c2.95-.81,7.9-1.94,8,5.79h0c-.32,4.86-1.51,7.3-4.46,8.1l-16.83,5.28C388.33,243.42,385,240.83,383.94,236.85Z" transform="translate(-383.59 -186.87)"/></svg>