<svg id="Layer_11" data-name="Layer 11" xmlns="http://www.w3.org/2000/svg" viewBox="0 0 96.75 137.26"><defs><style>.cls-1{fill:#bc7251;}.cls-2{fill:#ffc6a9;}</style></defs><title>HFH_handFront</title><path class="cls-1" d="M750.48,323V272a7.5,7.5,0,0,0-15,0v32.54q-1.1-.46-2.25-.84v-49a7.5,7.5,0,0,0-15,0v47.75h-3c0-.22,0-.44,0-.67V247.76a7.5,7.5,0,0,0-15,0v54.08c0,.2,0,.4,0,.6l-2.78-.07V258.74a7.5,7.5,0,0,0-15,0v54.08a6.9,6.9,0,0,0,.08,1,65.22,65.22,0,0,0-.83,11.42l.36,10.75-3.91-4.62-.1-.11-5.68-21.94c-.92-4-3.45-5.92-8.42-7-7.88-.87-6.55,5.85-5.63,9.87l5.39,23.48a53.1,53.1,0,0,0,3,5.36l25.53,30.21c2.72,1.1,4.61,2,6.25,2.26a34.21,34.21,0,0,0,9.22,1h17.75c13.75,1.25,21.25-7.5,24.19-24.18L751,328A25,25,0,0,0,750.48,323Z" transform="translate(-654.23 -237.37)"/><path class="cls-2" d="M747.06,320.11v-51a7.52,7.52,0,0,0-7.5-7.5h0a7.53,7.53,0,0,0-7.5,7.5v32.55c-.73-.32-1.48-.6-2.25-.85v-49a7.52,7.52,0,0,0-7.5-7.5h0a7.52,7.52,0,0,0-7.5,7.5v47.75h-3c0-.22,0-.45,0-.67V244.87a7.52,7.52,0,0,0-7.5-7.5h0a7.52,7.52,0,0,0-7.5,7.5V299c0,.2,0,.4,0,.59l-2.78-.06V255.84a7.52,7.52,0,0,0-7.5-7.5h0a7.53,7.53,0,0,0-7.5,7.5v54.08a8.43,8.43,0,0,0,.08,1,65.35,65.35,0,0,0-.83,11.43l.36,10.74-3.9-4.62-.11-.11L669,306.45c-.92-4-3.45-5.92-8.42-7-7.87-.88-6.55,5.84-5.63,9.86l5.39,23.48a7.5,7.5,0,0,0,1.79,3.39,7.39,7.39,0,0,0,1.2,2l25.53,30.2c2.72,1.11,4.62,2,6.25,2.27a35,35,0,0,0,9.22,1h17.75c13.75,1.25,21.25-7.5,24.19-24.19l1.31-22.31A25,25,0,0,0,747.06,320.11Z" transform="translate(-654.23 -237.37)"/></svg>