<svg id="Layer_12" data-name="Layer 12" xmlns="http://www.w3.org/2000/svg" viewBox="0 0 93.34 134.37"><defs><style>.cls-1{fill:#fff;}</style></defs><title>HFH_handBackTint</title><path class="cls-1" d="M729.92,236.08v-51a7.5,7.5,0,0,0-15,0v32.55c-.73-.32-1.48-.6-2.25-.85v-49a7.5,7.5,0,0,0-15,0v47.75h-3c0-.22,0-.45,0-.67V160.84a7.5,7.5,0,0,0-15,0v54.08c0,.2,0,.4,0,.59l-2.78-.06V171.81a7.5,7.5,0,0,0-15,0v54.08a7,7,0,0,0,.08,1,65.14,65.14,0,0,0-.83,11.42l.36,10.74-3.91-4.62-.1-.11-5.68-21.93c-.93-4-3.45-5.92-8.42-7-7.88-.88-6.55,5.84-5.63,9.86l5.39,23.48a7.41,7.41,0,0,0,1.79,3.39,7.14,7.14,0,0,0,1.2,2l25.53,30.2c2.72,1.11,4.61,2,6.25,2.27a34.61,34.61,0,0,0,9.22,1h17.75c13.75,1.25,21.25-7.5,24.19-24.19l1.31-22.31A25.11,25.11,0,0,0,729.92,236.08Z" transform="translate(-637.09 -153.34)"/></svg>