<svg id="Layer_10" data-name="Layer 10" xmlns="http://www.w3.org/2000/svg" viewBox="0 0 109.46 137.5"><defs><style>.cls-1{fill:#63efa9;}.cls-2{fill:#2c9772;}.cls-3{fill:#c9c6a9;}</style></defs><title>HFH_HydraHand</title><path class="cls-1" d="M509.52,264.91h21a25.57,25.57,0,0,1,25.5,25.5l-1.31,22.31c-2.94,16.69-10.44,25.44-24.19,24.19H512.77c-21.5.27-21-12.75-25.25-26.66l-.75-22.59C486.77,261.46,495.5,264.91,509.52,264.91Z" transform="translate(-463.19 -202.7)"/><rect class="cls-1" x="482.52" y="216.63" width="15" height="69.08" rx="7.5" ry="7.5" transform="translate(-495.1 -127) rotate(-8.56)"/><rect class="cls-1" x="499.27" y="202.66" width="15" height="69.08" rx="7.5" ry="7.5" transform="translate(-476.19 -172.67) rotate(-3.35)"/><rect class="cls-1" x="517.27" y="209.66" width="15" height="69.08" rx="7.5" ry="7.5" transform="translate(-457.23 -215.12) rotate(1.36)"/><rect class="cls-1" x="533.19" y="223.92" width="15" height="69.08" rx="7.5" ry="7.5" transform="translate(-432.28 -259.31) rotate(6.17)"/><path class="cls-1" d="M477.07,303.88h0a7.52,7.52,0,0,1-8.78-5.95l-4.56-23.65c-.78-4-1.87-10.81,6-9.66h0c4.92,1.23,7.38,3.22,8.16,7.27L483,295.1A7.52,7.52,0,0,1,477.07,303.88Z" transform="translate(-463.19 -202.7)"/><path class="cls-1" d="M507.87,334.55h0c-3.15,2.67-5.35,1.24-10.57-.88l-25.53-30.21a7.53,7.53,0,0,1,.89-10.57h0a7.53,7.53,0,0,1,10.57.89L508.76,324A7.52,7.52,0,0,1,507.87,334.55Z" transform="translate(-463.19 -202.7)"/><rect class="cls-1" x="544.52" y="242.5" width="15" height="69.08" rx="7.5" ry="7.5" transform="translate(-345.11 -365.18) rotate(18.72)"/><path class="cls-2" d="M514,268.08h21a25.58,25.58,0,0,1,25.5,25.5l-1.31,22.32c-2.94,16.68-10.44,25.43-24.19,24.18H517.23c-21.5.28-21-12.75-25.25-26.65l-.75-22.6C491.23,264.64,500,268.08,514,268.08Z" transform="translate(-463.19 -202.7)"/><rect class="cls-2" x="486.98" y="219.81" width="15" height="69.08" rx="7.5" ry="7.5" transform="translate(-495.53 -126.3) rotate(-8.56)"/><rect class="cls-2" x="503.73" y="205.83" width="15" height="69.08" rx="7.5" ry="7.5" transform="translate(-476.37 -172.4) rotate(-3.35)"/><rect class="cls-2" x="521.73" y="212.83" width="15" height="69.08" rx="7.5" ry="7.5" transform="translate(-457.15 -215.22) rotate(1.36)"/><rect class="cls-2" x="537.65" y="227.1" width="15" height="69.08" rx="7.5" ry="7.5" transform="translate(-431.92 -259.77) rotate(6.17)"/><path class="cls-2" d="M481.52,307.06h0a7.52,7.52,0,0,1-8.78-5.95l-4.55-23.65c-.78-4.06-1.87-10.81,6-9.66h0c4.93,1.23,7.39,3.22,8.17,7.27l5.14,23.21A7.52,7.52,0,0,1,481.52,307.06Z" transform="translate(-463.19 -202.7)"/><path class="cls-2" d="M512.32,337.73h0c-3.15,2.67-5.34,1.24-10.57-.88l-25.52-30.21a7.52,7.52,0,0,1,.88-10.57h0a7.53,7.53,0,0,1,10.57.89l25.53,30.2A7.53,7.53,0,0,1,512.32,337.73Z" transform="translate(-463.19 -202.7)"/><rect class="cls-2" x="548.98" y="245.68" width="15" height="69.08" rx="7.5" ry="7.5" transform="translate(-343.85 -366.44) rotate(18.72)"/><path class="cls-3" d="M512.52,265.91h21a25.57,25.57,0,0,1,25.5,25.5l-1.31,22.31c-2.94,16.69-10.44,25.44-24.19,24.19H515.77c-21.5.27-21-12.75-25.25-26.66l-.75-22.59C489.77,262.46,498.5,265.91,512.52,265.91Z" transform="translate(-463.19 -202.7)"/><rect class="cls-3" x="485.52" y="217.63" width="15" height="69.08" rx="7.5" ry="7.5" transform="translate(-495.22 -126.54) rotate(-8.56)"/><rect class="cls-3" x="502.27" y="203.66" width="15" height="69.08" rx="7.5" ry="7.5" transform="translate(-476.24 -172.49) rotate(-3.35)"/><rect class="cls-3" x="520.27" y="210.66" width="15" height="69.08" rx="7.5" ry="7.5" transform="matrix(1, 0.02, -0.02, 1, -457.21, -215.19)"/><rect class="cls-3" x="536.19" y="224.92" width="15" height="69.08" rx="7.5" ry="7.5" transform="translate(-432.16 -259.63) rotate(6.17)"/><path class="cls-3" d="M480.07,304.88h0a7.52,7.52,0,0,1-8.78-5.95l-4.56-23.65c-.78-4-1.87-10.81,6-9.66h0c4.92,1.23,7.38,3.22,8.16,7.27L486,296.1A7.52,7.52,0,0,1,480.07,304.88Z" transform="translate(-463.19 -202.7)"/><path class="cls-3" d="M510.87,335.55h0c-3.15,2.67-5.35,1.24-10.57-.88l-25.53-30.21a7.53,7.53,0,0,1,.89-10.57h0a7.53,7.53,0,0,1,10.57.89L511.76,325A7.52,7.52,0,0,1,510.87,335.55Z" transform="translate(-463.19 -202.7)"/><rect class="cls-3" x="547.52" y="243.5" width="15" height="69.08" rx="7.5" ry="7.5" transform="translate(-344.63 -366.09) rotate(18.72)"/></svg>