<?xml version="1.0" encoding="utf-8"?>
<!-- Generator: Adobe Illustrator 22.1.0, SVG Export Plug-In . SVG Version: 6.00 Build 0)  -->
<svg version="1.1" xmlns="http://www.w3.org/2000/svg" xmlns:xlink="http://www.w3.org/1999/xlink" x="0px" y="0px"
	 viewBox="0 0 792 612" style="enable-background:new 0 0 792 612;" xml:space="preserve">
<style type="text/css">
	.st0{display:none;}
	.st1{display:inline;fill:#FFC6A9;}
	.st2{display:inline;}
	.st3{fill:#D14583;}
	.st4{display:inline;fill:#FF9D9A;}
	.st5{display:inline;fill:#472910;}
	.st6{display:inline;fill:#8B5600;}
	.st7{fill:#5C0041;}
	.st8{fill:#00E7D0;}
	.st9{fill:#FFE15C;}
	.st10{display:inline;fill:#00E7D0;}
</style>
<g id="Base_Face" class="st0">
	<path class="st1" d="M390.2,121.1L390.2,121.1c26.9,0,49,22,49,49v43c0,26.9-22,49-49,49h0c-26.9,0-49-22-49-49v-43
		C341.2,143.1,363.3,121.1,390.2,121.1z"/>
	<g class="st2">
		<path d="M413.7,228.1c-2.7-3.6-8.6-6.5-15.8-7.7c0,0,0,0,0,0c0,0-0.1,0-0.1,0c-3.8,0-7,1.9-7,4.2c0,0.9,0.4,1.7,1.2,2.3
			c0.6,0.2,1,0.6,1,1c0,0.7-1.2,1.4-2.8,1.4c-1.5,0-2.8-0.6-2.8-1.4c0-0.4,0.3-0.7,0.9-1c0.8-0.7,1.2-1.5,1.2-2.4
			c0-2.3-3.1-4.2-7-4.2c0,0-0.1,0-0.1,0c0,0,0,0,0,0c-8.4,1.4-14.8,5-16.8,9.4c-0.9,1.2-1.4,2.5-1.4,3.9c0,4.7,5.6,8.4,12.6,8.4
			s12.6-3.8,12.6-8.4c0-0.3,0-0.6-0.1-0.9l0.9-0.2l0.8,0.2c0,0.1,0,0.2,0,0.3c0,4.7,5.6,8.4,12.6,8.4c6.9,0,12.6-3.8,12.6-8.4
			C416.1,231.2,415.2,229.5,413.7,228.1z"/>
		<path class="st3" d="M382.6,220.5c3.8,0,7,1.9,7,4.2c0,0.9-0.5,1.7-1.2,2.4c-0.6,0.2-0.9,0.6-0.9,1c0,0.7,1.2,1.4,2.8,1.4
			c1.5,0,2.8-0.6,2.8-1.4c0-0.4-0.4-0.8-1-1c-0.7-0.7-1.2-1.5-1.2-2.3c0-2.3,3.1-4.2,7-4.2c0,0,0.1,0,0.1,0c0,0,0,0,0,0
			c-2.4-0.4-5-0.6-7.7-0.6C387.5,219.8,385,220.1,382.6,220.5C382.5,220.5,382.5,220.5,382.6,220.5
			C382.5,220.5,382.6,220.5,382.6,220.5z"/>
	</g>
	<path class="st4" d="M390.2,214.6L390.2,214.6c-6.5,0-11.7-5.3-11.7-11.7v-4.5c0-6.5,5.3-11.7,11.7-11.7h0
		c6.5,0,11.7,5.3,11.7,11.7v4.5C402,209.4,396.7,214.6,390.2,214.6z"/>
	<circle class="st5" cx="366.7" cy="189" r="6.7"/>
	<path class="st6" d="M375,185.7l-15.2-6.9c-2.1-0.9-3-3.4-2.1-5.5v0c0.9-2.1,3.4-3,5.5-2.1l15.2,6.9c2.1,0.9,3,3.4,2.1,5.5h0
		C379.5,185.7,377,186.6,375,185.7z"/>
	<circle class="st5" cx="414.1" cy="189.1" r="6.7"/>
	<path class="st6" d="M405.8,185.8l15.2-6.9c2.1-0.9,3-3.4,2.1-5.5v0c-0.9-2.1-3.4-3-5.5-2.1l-15.2,6.9c-2.1,0.9-3,3.4-2.1,5.5l0,0
		C401.2,185.8,403.7,186.7,405.8,185.8z"/>
</g>
<g id="Mascara_1">
	<path class="st7" d="M390.2,121.1L390.2,121.1c-26.9,0-49,22-49,49v43c0,26.9,22,49,49,49h0c26.9,0,49-22,49-49v-43
		C439.2,143.1,417.2,121.1,390.2,121.1z M405,210.4c0,3-6.7,5.4-15,5.4c-8.3,0-15-2.4-15-5.4s6.7-5.4,15-5.4
		C398.3,205,405,207.4,405,210.4z M350.3,167.6c0,0,19.6,2.7,29.6,10.4c10,7.7,6.7,17.5,6.7,17.5s-15,7.9-25,0.3
		C351.5,188,350.3,167.6,350.3,167.6z M390,250.7c-16.6,0-30-7.3-30-16.3s13.4-16.3,30-16.3c16.6,0,30,7.3,30,16.3
		S406.6,250.7,390,250.7z M420.4,195.7c-10,7.7-25-0.3-25-0.3s-3.3-9.8,6.7-17.5c10-7.7,29.6-10.4,29.6-10.4S430.4,188,420.4,195.7z
		"/>
	<path class="st8" d="M380,173.7c-12.3-10.4-36.4-14.1-36.4-14.1s1.6,27.7,13.9,38.1c12.3,10.4,30.7-0.3,30.7-0.3
		S392.4,184.2,380,173.7z M386.5,195.5c0,0-14.9,7.9-24.9,0.3c-10-7.7-11.3-28.1-11.3-28.1s19.5,2.7,29.5,10.4
		C389.8,185.7,386.5,195.5,386.5,195.5z"/>
	<path class="st8" d="M400.8,173.7c-12.2,10.4-8.2,23.7-8.2,23.7s18.3,10.8,30.5,0.3c12.2-10.4,13.8-38.1,13.8-38.1
		S413.1,163.3,400.8,173.7z M420.3,195.7c-9.9,7.7-24.8-0.3-24.8-0.3s-3.3-9.8,6.6-17.5c9.9-7.7,29.4-10.4,29.4-10.4
		S430.3,188,420.3,195.7z"/>
	<path class="st8" d="M390,202.3c-10.1,0-18.3,3.3-18.3,7.5c0,4.1,8.2,7.5,18.3,7.5s18.3-3.3,18.3-7.5
		C408.3,205.7,400.1,202.3,390,202.3z M390,215.9c-8.3,0-15-2.4-15-5.4s6.7-5.4,15-5.4s15,2.4,15,5.4S398.3,215.9,390,215.9z"/>
	<path class="st8" d="M390.1,215c-18.4,0-33.4,8.7-33.4,19.4c0,10.7,14.9,19.4,33.4,19.4s33.4-8.7,33.4-19.4
		C423.5,223.7,408.6,215,390.1,215z M390,250.7c-16.6,0-30-7.3-30-16.3s13.4-16.3,30-16.3c16.6,0,30,7.3,30,16.3
		S406.5,250.7,390,250.7z"/>
	<polygon class="st9" points="390.4,125.5 397.3,139.5 412.7,141.7 401.6,152.5 404.2,167.9 390.4,160.6 376.7,167.9 379.3,152.5 
		368.1,141.7 383.5,139.5 	"/>
	<polygon class="st8" points="390,132.2 395,142.4 406.4,144.1 398.2,152.1 400.1,163.3 390,158 379.8,163.3 381.8,152.1 
		373.6,144.1 384.9,142.4 	"/>
</g>
<g id="Layer_3" class="st0">
	<path class="st10" d="M585.3,138.3c9.9,7.7,6.6,17.5,6.6,17.5s-14.9,7.9-24.8,0.3c-9.9-7.7-11.2-28.1-11.2-28.1
		S575.4,130.6,585.3,138.3z"/>
</g>
</svg>
