<svg id="Layer_12" data-name="Layer 12" xmlns="http://www.w3.org/2000/svg" viewBox="0 0 97.99 140.94"><defs><style>.cls-1{fill:#ff6f3c;}.cls-2{fill:#52d218;}.cls-3{fill:#7fff45;}.cls-4{fill:#fc9acc;stroke:#ff45c1;stroke-miterlimit:10;}.cls-5{fill:#87c540;}.cls-6{fill:#ff45c1;}</style></defs><title>HFH_Mascara2</title><g id="Mascara_2" data-name="Mascara 2"><path class="cls-1" d="M390.39,121.09h0a49.14,49.14,0,0,0-49,49V213a49.13,49.13,0,0,0,49,49h0a49.13,49.13,0,0,0,49-49V170.09A49.14,49.14,0,0,0,390.39,121.09ZM353.78,165s-.72,5.17,12.62,8.52c7.88,2,10.26,2,13.77,5.35,7.45,7.09,1.41,17.26-8.61,17.91-5,.33-9.26-.74-13.17-4.41C348.37,183,353.78,165,353.78,165Zm36.11,94.08c-17.93,0-32.46-9-32.46-20.17s14.53-20.17,32.46-20.17,32.46,9,32.46,20.17S407.82,259.09,389.89,259.09ZM422,192.38c-3.92,3.67-8.16,4.74-13.17,4.41-10-.65-16.07-10.82-8.61-17.91,3.5-3.33,5.88-3.36,13.77-5.35,13.34-3.35,12.62-8.52,12.62-8.52S432,183,422,192.38Z" transform="translate(-341.4 -121.09)"/></g><g id="Layer_10" data-name="Layer 10"><path class="cls-2" d="M426.55,190.24l.38-.45,5.76-5.62-2.3-.33c4.51-11.48.77-26.35.77-26.35s.72,6.18-12.62,10.19c-1.35.41-2.52.74-3.58,1-1.06-.3-2.24-.63-3.59-1a38.06,38.06,0,0,1-3.65-1.29,57.12,57.12,0,0,0-1.3-8.73s.33,2.89-3.72,6c-4.29-3.17-3.95-6.17-3.95-6.17a57.51,57.51,0,0,0-1.32,9.09c-1.08.44-2.28.87-3.63,1.28s-2.53.74-3.59,1c-1-.3-2.23-.63-3.58-1-1.11-.33-2.12-.69-3-1a57.61,57.61,0,0,0-1.33-9.26s.35,3.11-4.2,6.35c-4.4-3.2-4.05-6.25-4.05-6.25a58.38,58.38,0,0,0-1.32,9.05c-.93.36-1.94.71-3.06,1-1.34.4-2.52.74-3.58,1l-3.59-1c-13.33-4-12.62-10.2-12.62-10.2s-3.7,14.74.71,26.19l-2.89.42,8,7.81-1.89,11,9.9-5.21,9,4.71a53.25,53.25,0,0,0,1.08,6.43s-.72-6.18,12.62-10.19c1.35-.41,2.52-.74,3.58-1.05,1.06.31,2.24.64,3.59,1.05,13.33,4,12.62,10.19,12.62,10.19a54.41,54.41,0,0,0,1-6.14l9.51-5,9.89,5.21-1.87-10.94A19.71,19.71,0,0,0,426.55,190.24Zm-55,6.55c-5,.33-9.26-.74-13.17-4.41-10-9.4-4.61-27.37-4.61-27.37s-.72,5.17,12.62,8.52c7.88,2,10.26,2,13.77,5.35C387.62,186,381.58,196.14,371.56,196.79ZM422,192.38c-3.92,3.67-8.16,4.74-13.17,4.41-10-.65-16.07-10.82-8.61-17.91,3.5-3.33,5.88-3.36,13.77-5.35,13.34-3.35,12.62-8.52,12.62-8.52S432,183,422,192.38Z" transform="translate(-341.4 -121.09)"/></g><g id="Layer_11" data-name="Layer 11"><path class="cls-3" d="M415,154.22c-1.09,7.58-.8,9.78-4,13.55-6.77,8-18.81,4.17-20.92-4.94a13.69,13.69,0,0,1,3-12.85c9-10.78,29.5-8.79,29.5-8.79S416.88,141.39,415,154.22Z" transform="translate(-341.4 -121.09)"/><path class="cls-3" d="M365.28,155.13c2,7.4,1.92,9.62,5.52,13,7.66,7.2,19.17,2,20.21-7.34a13.72,13.72,0,0,0-4.51-12.41c-10.14-9.67-30.31-5.31-30.31-5.31S362,142.6,365.28,155.13Z" transform="translate(-341.4 -121.09)"/><path class="cls-4" d="M372.16,163.83c4.61,3.12,5.65,4.35,9.24,4.49A8.73,8.73,0,0,0,389,154.64a10,10,0,0,0-8.4-4.66c-10.19-.45-19.16,11.58-19.16,11.58S364.35,158.55,372.16,163.83Z" transform="translate(-341.4 -121.09)"/><path class="cls-4" d="M408.06,164c-4.62,3.12-5.65,4.36-9.24,4.49a8.73,8.73,0,0,1-7.58-13.68,10,10,0,0,1,8.41-4.65c10.18-.46,19.15,11.58,19.15,11.58S415.86,158.69,408.06,164Z" transform="translate(-341.4 -121.09)"/><path class="cls-5" d="M405.85,129.41s.66,6.16-11.75,10.16c-1.25.4-2.35.73-3.33,1-1-.3-2.08-.63-3.34-1-12.41-4-11.74-10.16-11.74-10.16s-5,21.42,4.29,32.63a13.45,13.45,0,0,0,8.41,5.15h.12c.24,0,.49.07.73.09h.11c.26,0,.52,0,.77,0h1.29c.26,0,.52,0,.77,0h.11c.25,0,.49,0,.74-.09h.11a13.47,13.47,0,0,0,8.42-5.15C410.88,150.83,405.85,129.41,405.85,129.41Z" transform="translate(-341.4 -121.09)"/><path class="cls-6" d="M401.58,130.42s.48,4.19-8.55,6.9c-.91.28-1.7.5-2.42.71-.72-.21-1.51-.43-2.43-.71-9-2.71-8.54-6.9-8.54-6.9S376,145,382.76,152.59a10,10,0,0,0,5.53,3.38l.1,0c.34.07.69.12,1.05.16h.1l.38,0,.69,0,.69,0,.37,0h.11c.36,0,.7-.09,1.05-.16l.1,0a10.06,10.06,0,0,0,5.53-3.38C405.24,145,401.58,130.42,401.58,130.42Z" transform="translate(-341.4 -121.09)"/><path class="cls-4" d="M409.29,154.18c-1.67,5.32-1.71,6.93-4.44,9.27a8.73,8.73,0,0,1-14.44-6,10,10,0,0,1,3.68-8.87c7.69-6.69,22.2-2.86,22.2-2.86S412.11,145.19,409.29,154.18Z" transform="translate(-341.4 -121.09)"/><path class="cls-4" d="M395.18,141.06c3.39,4.42,4.68,5.38,5,9A8.73,8.73,0,0,1,387,158.39a10,10,0,0,1-5.14-8.11c-1.05-10.14,10.42-19.81,10.42-19.81S389.45,133.58,395.18,141.06Z" transform="translate(-341.4 -121.09)"/><path class="cls-4" d="M392.91,142.27c-5.34,1.61-7,1.64-9.32,4.34a8.73,8.73,0,0,0,5.83,14.51,10,10,0,0,0,8.91-3.58c6.78-7.61,3.12-22.17,3.12-22.17S401.94,139.56,392.91,142.27Z" transform="translate(-341.4 -121.09)"/><path class="cls-4" d="M370.84,154.18c1.67,5.32,1.71,6.93,4.44,9.27a8.73,8.73,0,0,0,14.44-6,10,10,0,0,0-3.67-8.87c-7.69-6.69-22.21-2.86-22.21-2.86S368,145.19,370.84,154.18Z" transform="translate(-341.4 -121.09)"/><path class="cls-4" d="M388.06,142.27c5.33,1.61,6.94,1.64,9.32,4.34a8.73,8.73,0,0,1-5.83,14.51,10,10,0,0,1-8.91-3.58c-6.79-7.61-3.12-22.17-3.12-22.17S379,139.56,388.06,142.27Z" transform="translate(-341.4 -121.09)"/><path class="cls-3" d="M401.86,209.29c.22-1.3-.59-4.88-1.79-8l-4.26-10.86c-1.2-3.07-3.38-6.25-4.84-7.06s-4.8,4-6,7.06l-4.25,10.86c-1.2,3.08-2,6.66-1.79,8s5.54,2.38,8.84,2.38H393C396.32,211.67,401.64,210.6,401.86,209.29Z" transform="translate(-341.4 -121.09)"/><path class="cls-4" d="M346.61,216.68c.14,2.71,0,3.48,1,4.91a4.26,4.26,0,0,0,7.55-1.07,4.85,4.85,0,0,0-.65-4.63c-2.82-4.1-10.14-4.06-10.14-4.06S346.37,212.08,346.61,216.68Z" transform="translate(-341.4 -121.09)"/><path class="cls-4" d="M357.3,208c-3.23,1-4.2,1-5.64,2.63a5.29,5.29,0,0,0,3.53,8.79,6,6,0,0,0,5.4-2.17c4.11-4.61,1.89-13.43,1.89-13.43S362.77,206.39,357.3,208Z" transform="translate(-341.4 -121.09)"/><path class="cls-4" d="M362.78,221.69c-1.29,2.38-1.46,3.15-3,4a4.26,4.26,0,0,1-6.35-4.22,4.87,4.87,0,0,1,2.59-3.91c4.31-2.48,10.89.71,10.89.71S365,217.64,362.78,221.69Z" transform="translate(-341.4 -121.09)"/><path class="cls-4" d="M433.65,216.68c-.14,2.71,0,3.48-1,4.91a4.26,4.26,0,0,1-7.56-1.07,4.85,4.85,0,0,1,.66-4.63c2.81-4.1,10.13-4.06,10.13-4.06S433.89,212.08,433.65,216.68Z" transform="translate(-341.4 -121.09)"/><path class="cls-4" d="M423,208c3.24,1,4.21,1,5.65,2.63a5.29,5.29,0,0,1-3.53,8.79,6,6,0,0,1-5.4-2.17c-4.11-4.61-1.89-13.43-1.89-13.43S417.49,206.39,423,208Z" transform="translate(-341.4 -121.09)"/><path class="cls-4" d="M417.48,221.69c1.29,2.38,1.46,3.15,3,4a4.26,4.26,0,0,0,6.35-4.22,4.87,4.87,0,0,0-2.59-3.91c-4.31-2.48-10.9.71-10.9.71S415.28,217.64,417.48,221.69Z" transform="translate(-341.4 -121.09)"/></g></svg>