<?xml version="1.0" encoding="utf-8"?>
<!-- Generator: Adobe Illustrator 22.1.0, SVG Export Plug-In . SVG Version: 6.00 Build 0)  -->
<svg version="1.1" xmlns="http://www.w3.org/2000/svg" xmlns:xlink="http://www.w3.org/1999/xlink" x="0px" y="0px"
	 viewBox="0 0 792 612" style="enable-background:new 0 0 792 612;" xml:space="preserve">
<style type="text/css">
	.st0{display:none;}
	.st1{display:inline;fill:#FFC6A9;}
	.st2{display:inline;}
	.st3{fill:#D14583;}
	.st4{display:inline;fill:#FF9D9A;}
	.st5{display:inline;fill:#472910;}
	.st6{display:inline;fill:#8B5600;}
	.st7{display:inline;fill:#00E7D0;}
	.st8{display:inline;fill:#5C0041;}
	.st9{display:inline;fill:#FFE15C;}
	.st10{fill:none;}
	.st11{fill:#4B0073;}
	.st12{fill:#FF9933;stroke:#66CCFF;stroke-miterlimit:10;}
	.st13{fill:#5C9CFF;}
	.st14{fill:#FF9933;stroke:#663366;stroke-miterlimit:10;}
	.st15{fill:#FF9933;}
	.st16{fill:#66CCFF;}
	.st17{fill:#663366;}
	.st18{display:inline;fill:#FF9933;}
	.st19{display:inline;fill:#4B0073;}
	.st20{display:inline;fill:#3E8B00;}
	.st21{fill:#3E8B00;}
	.st22{display:inline;fill:#A20044;}
	.st23{display:inline;fill:#FFA199;}
	.st24{display:inline;fill:#AE8879;}
	.st25{display:inline;fill:#00E7D0;stroke:#FFE15C;stroke-miterlimit:10;}
</style>
<g id="Base_Face" class="st0">
	<path class="st1" d="M390.2,121.1L390.2,121.1c26.9,0,49,22,49,49v43c0,26.9-22,49-49,49h0c-26.9,0-49-22-49-49v-43
		C341.2,143.1,363.3,121.1,390.2,121.1z"/>
	<g class="st2">
		<path d="M413.7,228.1c-2.7-3.6-8.6-6.5-15.8-7.7c0,0,0,0,0,0c0,0-0.1,0-0.1,0c-3.8,0-7,1.9-7,4.2c0,0.9,0.4,1.7,1.2,2.3
			c0.6,0.2,1,0.6,1,1c0,0.7-1.2,1.4-2.8,1.4c-1.5,0-2.8-0.6-2.8-1.4c0-0.4,0.3-0.7,0.9-1c0.8-0.7,1.2-1.5,1.2-2.4
			c0-2.3-3.1-4.2-7-4.2c0,0-0.1,0-0.1,0c0,0,0,0,0,0c-8.4,1.4-14.8,5-16.8,9.4c-0.9,1.2-1.4,2.5-1.4,3.9c0,4.7,5.6,8.4,12.6,8.4
			s12.6-3.8,12.6-8.4c0-0.3,0-0.6-0.1-0.9l0.9-0.2l0.8,0.2c0,0.1,0,0.2,0,0.3c0,4.7,5.6,8.4,12.6,8.4c6.9,0,12.6-3.8,12.6-8.4
			C416.1,231.2,415.2,229.5,413.7,228.1z"/>
		<path class="st3" d="M382.6,220.5c3.8,0,7,1.9,7,4.2c0,0.9-0.5,1.7-1.2,2.4c-0.6,0.2-0.9,0.6-0.9,1c0,0.7,1.2,1.4,2.8,1.4
			c1.5,0,2.8-0.6,2.8-1.4c0-0.4-0.4-0.8-1-1c-0.7-0.7-1.2-1.5-1.2-2.3c0-2.3,3.1-4.2,7-4.2c0,0,0.1,0,0.1,0c0,0,0,0,0,0
			c-2.4-0.4-5-0.6-7.7-0.6C387.5,219.8,385,220.1,382.6,220.5C382.5,220.5,382.5,220.5,382.6,220.5
			C382.5,220.5,382.6,220.5,382.6,220.5z"/>
	</g>
	<path class="st4" d="M390.2,214.6L390.2,214.6c-6.5,0-11.7-5.3-11.7-11.7v-4.5c0-6.5,5.3-11.7,11.7-11.7h0
		c6.5,0,11.7,5.3,11.7,11.7v4.5C402,209.4,396.7,214.6,390.2,214.6z"/>
	<circle class="st5" cx="366.7" cy="189" r="6.7"/>
	<path class="st6" d="M375,185.7l-15.2-6.9c-2.1-0.9-3-3.4-2.1-5.5v0c0.9-2.1,3.4-3,5.5-2.1l15.2,6.9c2.1,0.9,3,3.4,2.1,5.5h0
		C379.5,185.7,377,186.6,375,185.7z"/>
	<circle class="st5" cx="414.1" cy="189.1" r="6.7"/>
	<path class="st6" d="M405.8,185.8l15.2-6.9c2.1-0.9,3-3.4,2.1-5.5v0c-0.9-2.1-3.4-3-5.5-2.1l-15.2,6.9c-2.1,0.9-3,3.4-2.1,5.5l0,0
		C401.2,185.8,403.7,186.7,405.8,185.8z"/>
</g>
<g id="Mascara_0" class="st0">
	<path class="st7" d="M630.3,59.3c9.9,7.7,6.6,17.5,6.6,17.5s-14.9,7.9-24.8,0.3c-9.9-7.7-11.2-28.1-11.2-28.1
		S620.4,51.6,630.3,59.3z"/>
	<path class="st8" d="M390.2,121.1L390.2,121.1c-26.9,0-49,22-49,49v43c0,26.9,22,49,49,49h0c26.9,0,49-22,49-49v-43
		C439.2,143.1,417.2,121.1,390.2,121.1z M405,210.4c0,3-6.7,5.4-15,5.4c-8.3,0-15-2.4-15-5.4s6.7-5.4,15-5.4
		C398.3,205,405,207.4,405,210.4z M350.3,167.6c0,0,19.6,2.7,29.6,10.4c10,7.7,6.7,17.5,6.7,17.5s-15,7.9-25,0.3
		C351.5,188,350.3,167.6,350.3,167.6z M390,250.7c-16.6,0-30-7.3-30-16.3s13.4-16.3,30-16.3c16.6,0,30,7.3,30,16.3
		S406.6,250.7,390,250.7z M420.4,195.7c-10,7.7-25-0.3-25-0.3s-3.3-9.8,6.7-17.5c10-7.7,29.6-10.4,29.6-10.4S430.4,188,420.4,195.7z
		"/>
	<path class="st7" d="M380,173.7c-12.3-10.4-36.4-14.1-36.4-14.1s1.6,27.7,13.9,38.1c12.3,10.4,30.7-0.3,30.7-0.3
		S392.4,184.2,380,173.7z M386.5,195.5c0,0-14.9,7.9-24.9,0.3c-10-7.7-11.3-28.1-11.3-28.1s19.5,2.7,29.5,10.4
		C389.8,185.7,386.5,195.5,386.5,195.5z"/>
	<path class="st7" d="M400.8,173.7c-12.2,10.4-8.2,23.7-8.2,23.7s18.3,10.8,30.5,0.3c12.2-10.4,13.8-38.1,13.8-38.1
		S413.1,163.3,400.8,173.7z M420.3,195.7c-9.9,7.7-24.8-0.3-24.8-0.3s-3.3-9.8,6.6-17.5c9.9-7.7,29.4-10.4,29.4-10.4
		S430.3,188,420.3,195.7z"/>
	<path class="st7" d="M390,202.3c-10.1,0-18.3,3.3-18.3,7.5c0,4.1,8.2,7.5,18.3,7.5s18.3-3.3,18.3-7.5
		C408.3,205.7,400.1,202.3,390,202.3z M390,215.9c-8.3,0-15-2.4-15-5.4s6.7-5.4,15-5.4s15,2.4,15,5.4S398.3,215.9,390,215.9z"/>
	<path class="st7" d="M390.1,215c-18.4,0-33.4,8.7-33.4,19.4c0,10.7,14.9,19.4,33.4,19.4s33.4-8.7,33.4-19.4
		C423.5,223.7,408.6,215,390.1,215z M390,250.7c-16.6,0-30-7.3-30-16.3s13.4-16.3,30-16.3c16.6,0,30,7.3,30,16.3
		S406.5,250.7,390,250.7z"/>
	<polygon class="st9" points="390.4,125.5 397.3,139.5 412.7,141.7 401.6,152.5 404.2,167.9 390.4,160.6 376.7,167.9 379.3,152.5 
		368.1,141.7 383.5,139.5 	"/>
	<polygon class="st7" points="390,132.2 395,142.4 406.4,144.1 398.2,152.1 400.1,163.3 390,158 379.8,163.3 381.8,152.1 
		373.6,144.1 384.9,142.4 	"/>
</g>
<g id="Mascara_1_Base" class="st0">
</g>
<g id="stars">
	<path class="st10" d="M370.1,198.6c10-0.8,16.1-13,8.6-21.4c-3.5-4-5.9-4-13.8-6.4c-13.3-4-12.6-10.2-12.6-10.2s-5.4,21.5,4.6,32.8
		C360.9,197.7,365.1,199,370.1,198.6z"/>
	<path class="st11" d="M389.9,218.6c0.1,0,0.2,0,0.3,0v-97.5h0c-2.5,0-5,0.2-7.4,0.6s-4.8,0.9-7.1,1.6c-1.5,0.5-3,1-4.5,1.7
		c-1.5,0.6-2.9,1.3-4.3,2.1c-4.2,2.3-8,5.1-11.3,8.5c-1.1,1.1-2.2,2.3-3.2,3.5c-2.5,3-4.6,6.4-6.4,9.9c-0.7,1.4-1.3,2.9-1.9,4.4
		c-1.9,5.2-3,10.9-3,16.8V200l0.9,0.2l8.2-7.1l0.7,10.8l9.3,5.6l-10.1,4l-2.4,10.6l-6.4-7.7c0.3,4.7,1.3,9.3,2.9,13.5
		c0.6,1.5,1.2,3,1.9,4.4c1.7,3.6,3.9,6.9,6.4,9.9c1,1.2,2.1,2.4,3.2,3.5c3.3,3.3,7.1,6.2,11.3,8.5c1.4,0.8,2.8,1.4,4.3,2.1
		c1.5,0.6,3,1.2,4.5,1.7c2.3,0.7,4.7,1.3,7.1,1.6s4.9,0.6,7.4,0.6h0v-3c-0.1,0-0.2,0-0.3,0c-17.9,0-32.5-9-32.5-20.2
		C357.5,227.7,372,218.6,389.9,218.6z M357,193.3c-10-11.2-4.6-32.8-4.6-32.8s-0.7,6.2,12.6,10.2c7.9,2.4,10.3,2.4,13.8,6.4
		c7.5,8.5,1.4,20.7-8.6,21.4C365.1,199,360.9,197.7,357,193.3z"/>
	<path class="st12" d="M350.1,213.5l10.1-4l-9.3-5.6l-0.7-10.8l-8.2,7.1l-0.9-0.2V213c0,1.1,0,2.2,0.1,3.3l6.4,7.7L350.1,213.5z"/>
	<path class="st10" d="M423.6,193.3c10-11.2,4.6-32.8,4.6-32.8s0.7,6.2-12.6,10.2c-7.9,2.4-10.3,2.4-13.8,6.4
		c-7.5,8.5-1.4,20.7,8.6,21.4C415.4,199,419.7,197.7,423.6,193.3z"/>
	<path class="st13" d="M431.1,213.5l-10.1-4l9.3-5.6l0.7-10.8l8.2,7.1l0,0v-30.1c0-26.9-22-49-49-49h0v97.6
		c17.8,0.1,32.1,9.1,32.1,20.2S408,258.9,390.2,259v3h0c25.5,0,46.5-19.7,48.8-44.6l-5.4,6.6L431.1,213.5z M410.4,198.6
		c-10-0.8-16.1-13-8.6-21.4c3.5-4,5.9-4,13.8-6.4c13.3-4,12.6-10.2,12.6-10.2s5.4,21.5-4.6,32.8C419.7,197.7,415.4,199,410.4,198.6z
		"/>
	<path class="st14" d="M439.2,200.2L439.2,200.2l-8.2-7.1l-0.7,10.8l-9.3,5.6l10.1,4l2.4,10.6l5.4-6.6c0.1-1.4,0.2-2.9,0.2-4.4
		V200.2z"/>
	<polygon class="st15" points="390.3,149.8 393.9,157 402,158.2 396.1,163.9 397.5,171.9 390.3,168.1 383.1,171.9 384.5,163.9 
		378.7,158.2 386.7,157 	"/>
	<polygon class="st15" points="371.8,146.2 373.9,150.4 378.5,151.1 375.2,154.4 376,159.1 371.8,156.9 367.6,159.1 368.4,154.4 
		365,151.1 369.7,150.4 	"/>
	<polygon class="st15" points="408.8,146.4 410.9,150.6 415.5,151.3 412.2,154.6 413,159.2 408.8,157 404.6,159.2 405.4,154.6 
		402,151.3 406.7,150.6 	"/>
	<polygon class="st15" points="360.2,142.4 361.5,144.9 364.2,145.3 362.2,147.3 362.7,150 360.2,148.7 357.8,150 358.2,147.3 
		356.2,145.3 359,144.9 	"/>
	<polygon class="st15" points="420.8,141.3 422,143.8 424.7,144.2 422.8,146.2 423.2,148.9 420.8,147.6 418.3,148.9 418.8,146.2 
		416.8,144.2 419.5,143.8 	"/>
</g>
<g id="Mascara_1_Details">
	<path class="st13" d="M366.9,127.1c1.4-0.8,2.8-1.4,4.3-2.1C369.7,125.6,368.3,126.3,366.9,127.1z"/>
	<path class="st13" d="M371.2,258.2c-1.5-0.6-2.9-1.3-4.3-2.1C368.3,256.8,369.7,257.5,371.2,258.2z"/>
	<path class="st13" d="M346,234.2c-0.7-1.4-1.3-2.9-1.9-4.4C344.7,231.3,345.4,232.8,346,234.2z"/>
	<path class="st13" d="M352.4,139c1-1.2,2.1-2.4,3.2-3.5C354.5,136.6,353.4,137.8,352.4,139z"/>
	<path class="st13" d="M344.2,153.3c0.6-1.5,1.2-3,1.9-4.4C345.4,150.3,344.7,151.8,344.2,153.3z"/>
	<path class="st13" d="M355.6,247.6c-1.1-1.1-2.2-2.3-3.2-3.5C353.4,245.4,354.5,246.5,355.6,247.6z"/>
	<path class="st13" d="M382.8,261.5c-2.4-0.4-4.8-0.9-7.1-1.6C378,260.5,380.3,261.1,382.8,261.5z"/>
	<path class="st15" d="M381.7,176.3c-3.8-5-6.7-5.2-15.8-8.5c-15.5-5.7-14.1-12.9-14.1-12.9s-8.1,25,2.9,39
		c4.3,5.5,9.2,7.3,15.2,7.2C381.8,200.8,389.9,186.8,381.7,176.3z M370.1,198.6c-5,0.4-9.3-0.9-13.2-5.3c-10-11.2-4.6-32.8-4.6-32.8
		s-0.7,6.2,12.6,10.2c7.9,2.4,10.3,2.4,13.8,6.4C386.2,185.6,380.2,197.8,370.1,198.6z"/>
	<path class="st15" d="M428.6,154.8c0,0,1.3,7.3-14.1,12.9c-9.2,3.4-12,3.6-15.8,8.5c-8.2,10.6,0,24.5,11.9,24.7
		c6,0.1,10.9-1.7,15.2-7.2C436.7,179.8,428.6,154.8,428.6,154.8z M423.6,193.3c-3.9,4.4-8.2,5.7-13.2,5.3c-10-0.8-16.1-13-8.6-21.4
		c3.5-4,5.9-4,13.8-6.4c13.3-4,12.6-10.2,12.6-10.2S433.6,182.1,423.6,193.3z"/>
	<path class="st15" d="M390.2,215.5c-19.6,0-35.5,10.1-35.5,22.6s15.9,22.6,35.5,22.6s35.5-10.1,35.5-22.6S409.8,215.5,390.2,215.5z
		 M389.9,259c-17.9,0-32.5-9-32.5-20.2s14.5-20.2,32.5-20.2c17.9,0,32.5,9,32.5,20.2S407.9,259,389.9,259z"/>
</g>
<g id="nose">
	<g>
		<path class="st16" d="M390.4,209.9h7.4c2.2,0,3.7-2.2,2.9-4.2l-7.6-19.5c-0.5-1.3-1.7-2-2.9-2"/>
	</g>
	<g>
		<path class="st17" d="M390.2,184.3c-1.2,0-2.4,0.7-2.9,2l-7.6,19.5c-0.8,2,0.7,4.2,2.9,4.2h7.8"/>
	</g>
</g>
<g id="Mascara_1_Discards" class="st0">
	<path class="st18" d="M712.7,234.8l-9.6-2.5l4.2,10l-5.8,9.1l10.8-0.9l0.5,0.6c-0.1-1.1-0.1-2.2-0.1-3.3V234.8z"/>
	<path class="st18" d="M727.7,251.1l-5.8-9.1l4.2-10l-10.5,2.7v12.9c0,1.5-0.1,2.9-0.2,4.4l1.5-1.8L727.7,251.1z"/>
	<path class="st19" d="M637.5,120.3L637.5,120.3l0,140.9h0c26.9,0,49-22,49-49v-42.9C686.5,142.4,664.5,120.3,637.5,120.3z"/>
	<path class="st20" d="M601.8,85.1c-9.9,7.7-6.6,17.5-6.6,17.5s14.9,7.9,24.8,0.3c9.9-7.7,11.2-28.1,11.2-28.1
		S611.7,77.4,601.8,85.1z"/>
	<g class="st2">
		<path class="st21" d="M511.1,115.5l-8.6,22c-0.9,2.3,0.8,4.7,3.2,4.7H523c2.4,0,4.1-2.5,3.2-4.7l-8.6-22
			C516.4,112.6,512.2,112.6,511.1,115.5z"/>
	</g>
	<path class="st22" d="M630.9,251.1L630.9,251.1c-3.7,1-8.7,1.1-11.1,0.2l-43.3-16.9c-2.4-0.9-1.3-2.5,2.3-3.6h0
		c3.7-1,8.7-1.1,11.1-0.2l43.3,16.9C635.7,248.5,634.6,250.1,630.9,251.1z"/>
	<path class="st22" d="M575.2,252L575.2,252c-3.5-0.8-4.3-2.3-1.6-3.4l47.6-19.4c2.6-1.1,7.7-1.3,11.2-0.5l0,0
		c3.5,0.8,4.3,2.3,1.6,3.4l-47.6,19.4C583.8,252.6,578.8,252.8,575.2,252z"/>
	<g class="st2">
		<g>
			<path class="st21" d="M515.4,156.1c7.9,2.4,10.3,2.4,13.8,6.4c7.5,8.5,1.4,20.7-8.6,21.4c-5,0.4-9.3-0.9-13.2-5.3
				c-10-11.2-4.6-32.8-4.6-32.8S502,152.1,515.4,156.1z"/>
			<path class="st21" d="M566,156.1c-7.9,2.4-10.3,2.4-13.8,6.4c-7.5,8.5-1.4,20.7,8.6,21.4c5,0.4,9.3-0.9,13.2-5.3
				c10-11.2,4.6-32.8,4.6-32.8S579.3,152.1,566,156.1z"/>
		</g>
		<g>
			<path class="st21" d="M537.1,170.1l-8.6,22c-0.9,2.3,0.8,4.7,3.2,4.7H549c2.4,0,4.1-2.5,3.2-4.7l-8.6-22
				C542.5,167.2,538.3,167.2,537.1,170.1z"/>
		</g>
		<ellipse class="st21" cx="540.4" cy="224.2" rx="32.5" ry="20.2"/>
	</g>
	<g class="st2">
		<path class="st21" d="M591.4,180.5l-8.6,22c-0.9,2.3,0.8,4.7,3.2,4.7h17.3c2.4,0,4.1-2.5,3.2-4.7l-8.6-22
			C596.7,177.6,592.6,177.6,591.4,180.5z"/>
	</g>
	<g class="st2">
		<path class="st15" d="M701.7,223.1h8.4c2.4,0,4.1-2.5,3.2-4.7l-8.6-22c-0.6-1.5-1.9-2.2-3.2-2.2"/>
	</g>
</g>
<g id="Hand_x28_Open_x29_" class="st0">
	<path class="st1" d="M601.5,143.8h21c14,0,25.5,11.5,25.5,25.5l-1.3,22.3c-2.9,16.7-10.4,25.4-24.2,24.2h-17.8
		c-21.5,0.3-21-12.8-25.3-26.7l-0.8-22.6C578.8,140.3,587.5,143.8,601.5,143.8z"/>
	<path class="st1" d="M587,161.6L587,161.6c-4.1,0-7.5-3.4-7.5-7.5V100c0-4.1,3.4-7.5,7.5-7.5l0,0c4.1,0,7.5,3.4,7.5,7.5v54.1
		C594.5,158.2,591.1,161.6,587,161.6z"/>
	<path class="st1" d="M604.8,150.6L604.8,150.6c-4.1,0-7.5-3.4-7.5-7.5V89c0-4.1,3.4-7.5,7.5-7.5l0,0c4.1,0,7.5,3.4,7.5,7.5v54.1
		C612.3,147.2,608.9,150.6,604.8,150.6z"/>
	<path class="st1" d="M622.8,157.6L622.8,157.6c-4.1,0-7.5-3.4-7.5-7.5V96c0-4.1,3.4-7.5,7.5-7.5l0,0c4.1,0,7.5,3.4,7.5,7.5v54.1
		C630.3,154.2,626.9,157.6,622.8,157.6z"/>
	<path class="st1" d="M640,174.8L640,174.8c-4.1,0-7.5-3.4-7.5-7.5v-54.1c0-4.1,3.4-7.5,7.5-7.5l0,0c4.1,0,7.5,3.4,7.5,7.5v54.1
		C647.5,171.5,644.1,174.8,640,174.8z"/>
	<path class="st1" d="M569.7,182.6L569.7,182.6c-4,0.9-8.1-1.6-9-5.6l-5.4-23.5c-0.9-4-2.2-10.7,5.6-9.9l0,0l0,0c5,1.1,7.5,3,8.4,7
		l6,23C576.3,177.6,573.8,181.7,569.7,182.6z"/>
	<path class="st1" d="M599.8,213.4L599.8,213.4c-3.2,2.7-5.3,1.2-10.6-0.9l-25.5-30.2c-2.7-3.2-2.3-7.9,0.9-10.6v0
		c3.2-2.7,7.9-2.3,10.6,0.9l25.5,30.2C603.4,206,603,210.7,599.8,213.4z"/>
</g>
<g id="Hand_x28_Closed_x29_" class="st0">
	<path class="st1" d="M457.5,143.8h21c14,0,25.5,11.5,25.5,25.5l-1.3,22.3c-2.9,16.7-10.4,25.4-24.2,24.2h-17.8
		c-21.5,0.3-21-12.8-25.3-26.7l-0.8-22.6C434.8,140.3,443.5,143.8,457.5,143.8z"/>
	<path class="st1" d="M443,161.6L443,161.6c-4.1,0-7.5-3.4-7.5-7.5V100c0-4.1,3.4-7.5,7.5-7.5l0,0c4.1,0,7.5,3.4,7.5,7.5v54.1
		C450.5,158.2,447.1,161.6,443,161.6z"/>
	<path class="st1" d="M460.8,150.6L460.8,150.6c-4.1,0-7.5-3.4-7.5-7.5V89c0-4.1,3.4-7.5,7.5-7.5l0,0c4.1,0,7.5,3.4,7.5,7.5v54.1
		C468.3,147.2,464.9,150.6,460.8,150.6z"/>
	<path class="st1" d="M478.8,157.6L478.8,157.6c-4.1,0-7.5-3.4-7.5-7.5V96c0-4.1,3.4-7.5,7.5-7.5l0,0c4.1,0,7.5,3.4,7.5,7.5v54.1
		C486.3,154.2,482.9,157.6,478.8,157.6z"/>
	<path class="st1" d="M496,174.8L496,174.8c-4.1,0-7.5-3.4-7.5-7.5v-54.1c0-4.1,3.4-7.5,7.5-7.5l0,0c4.1,0,7.5,3.4,7.5,7.5v54.1
		C503.5,171.5,500.1,174.8,496,174.8z"/>
	<path class="st1" d="M425.7,182.6L425.7,182.6c-4,0.9-8.1-1.6-9-5.6l-5.4-23.5c-0.9-4-2.2-10.7,5.6-9.9l0,0l0,0c5,1.1,7.5,3,8.4,7
		l6,23C432.3,177.6,429.8,181.7,425.7,182.6z"/>
	<path class="st1" d="M455.8,213.4L455.8,213.4c-3.2,2.7-5.3,1.2-10.6-0.9l-25.5-30.2c-2.7-3.2-2.3-7.9,0.9-10.6l0,0
		c3.2-2.7,7.9-2.3,10.6,0.9l25.5,30.2C459.4,206,459,210.7,455.8,213.4z"/>
	<path class="st22" d="M542.5,214.9L542.5,214.9c-10,3-23.1,1.5-29.2-3.5l-110.2-88.7c-6.1-4.9-3-11.4,7-14.4l0,0
		c10-3,23.1-1.5,29.2,3.5l110.2,88.7C555.6,205.4,552.4,211.8,542.5,214.9z"/>
	<path class="st22" d="M392.4,213.4L392.4,213.4c-9.4-3.4-11.3-10-4.3-14.7L514,115.2c7-4.6,20.3-5.6,29.7-2.1v0
		c9.4,3.4,11.3,10,4.3,14.7l-125.9,83.5C415.2,215.8,401.8,216.8,392.4,213.4z"/>
</g>
<g id="Body" class="st0">
	<path class="st1" d="M361.3,273.3h60c25.3,0,46,20.7,46,46v77c0,14.7-12,26.7-26.7,26.7h-101c-14.7,0-26.7-12-26.7-26.7v-74.7
		C313,295.1,334.8,273.3,361.3,273.3z"/>
	<path class="st8" d="M313,395.3h154.3V422c0,13.4-11,24.3-24.3,24.3H337.2c-13.3,0-24.2-10.9-24.2-24.2V395.3z"/>
	<circle class="st23" cx="338" cy="322.4" r="3.2"/>
	<circle class="st23" cx="444.3" cy="322.4" r="3.2"/>
	<circle class="st24" cx="390.4" cy="391" r="2.6"/>
	<path class="st8" d="M346.8,430.3h4c6.6,0,12,5.4,12,12v84.3c0,6.6-5.4,12-12,12h-4c-6.6,0-12-5.4-12-12v-84.3
		C334.8,435.7,340.2,430.3,346.8,430.3z"/>
	<path class="st8" d="M427,430.3h4c6.6,0,12,5.4,12,12v84.3c0,6.6-5.4,12-12,12h-4c-6.6,0-12-5.4-12-12v-84.3
		C415,435.7,420.4,430.3,427,430.3z"/>
	<path class="st25" d="M362.8,553.7h-16c-6.6,0-61.9,1.9-12-10.4v-40.6c0-4.9,4-9,9-9h3c8.8,0,16,7.2,16,16V553.7z"/>
	<path class="st25" d="M415.1,553.7h16c6.6,0,61.9,1.9,12-10.4v-40.6c0-4.9-4-9-9-9h-3c-8.8,0-16,7.2-16,16V553.7z"/>
</g>
</svg>
