<svg id="Layer_1" data-name="Layer 1" xmlns="http://www.w3.org/2000/svg" viewBox="0 0 126.87 111.03"><defs><style>.cls-1,.cls-3{fill:#fff;}.cls-2{fill:none;}.cls-2,.cls-3{stroke:#fff;stroke-miterlimit:10;}</style></defs><title>button_customize</title><path class="cls-1" d="M129.38,241.08c15.73-6.5,30.12-8.58,31.12-4.58,1.66,6.66-13.92,7.76-13.65,17.06.18,6.08-7.06,14.5-14.45,13.71C116.94,265.62,113.82,247.51,129.38,241.08Z" transform="translate(-34.25 -233.96)"/><path class="cls-2" d="M129.38,241.08c15.73-6.5,30.12-8.58,31.12-4.58,1.66,6.66-13.92,7.76-13.65,17.06.18,6.08-7.06,14.5-14.45,13.71C116.94,265.62,113.82,247.51,129.38,241.08Z" transform="translate(-34.25 -233.96)"/><path class="cls-3" d="M110.19,260.94l13.52,15.11a5.06,5.06,0,0,1-.74,7.43l-80.12,60a5.06,5.06,0,0,1-6.76-.62h0a5.07,5.07,0,0,1-.06-6.8L102.62,261A5.08,5.08,0,0,1,110.19,260.94Z" transform="translate(-34.25 -233.96)"/><circle class="cls-3" cx="81.25" cy="35.54" r="15.5"/></svg>